<svg width="24" height="24" viewBox="0 0 24 24" fill="none" xmlns="http://www.w3.org/2000/svg">
<path fill-rule="evenodd" clip-rule="evenodd" d="M0.686292 20.4853C-0.0947575 21.2663 -0.0947568 22.5326 0.686292 23.3137C1.46734 24.0947 2.73367 24.0947 3.51472 23.3137L12 14.8284L20.4853 23.3137C21.2663 24.0947 22.5327 24.0947 23.3137 23.3137C24.0948 22.5326 24.0948 21.2663 23.3137 20.4853L14.8284 12L23.3137 3.51469C24.0948 2.73364 24.0948 1.46731 23.3137 0.686266C22.5327 -0.0947823 21.2663 -0.0947823 20.4853 0.686266L12 9.17155L3.51472 0.686267C2.73367 -0.0947817 1.46734 -0.0947816 0.686292 0.686267C-0.0947575 1.46732 -0.0947569 2.73365 0.686292 3.51469L9.17157 12L0.686292 20.4853Z" fill="#8F7949"/>
</svg>
