<svg width="1920" height="96" viewBox="0 0 1920 96" fill="none" xmlns="http://www.w3.org/2000/svg">
<path d="M345 -3.5H645H1926.5C1928.16 -3.5 1929.5 -2.15608 1929.5 -0.498278C1929.5 1.15818 1928.16 2.50154 1926.5 2.50344L671.044 3.94484C653.409 3.96509 644.592 3.97521 637.186 7.08472C631.229 9.58586 625.966 13.4928 621.848 18.4714C616.728 24.661 614.167 33.0981 609.045 49.9724L609.044 49.9733C603.917 66.8658 601.353 75.3122 596.226 81.5055C592.103 86.4872 586.833 90.3948 580.868 92.8935C573.453 96 564.625 96 546.971 96H439.274C415.651 96 403.84 96 394.343 90.306C393.52 89.8123 392.714 89.2892 391.929 88.7376C382.866 82.3752 378.065 71.5835 368.464 50C358.862 28.4165 354.061 17.6248 344.999 11.2624C344.213 10.7108 343.408 10.1877 342.584 9.69403C333.088 4 321.276 4 297.654 4H-24.75C-26.821 4 -28.5 2.32107 -28.5 0.25C-28.5 -1.82107 -26.821 -3.5 -24.75 -3.5H345Z" fill="#8F7949"/>
</svg>
