<svg width="153" height="60" viewBox="0 0 153 60" fill="none" xmlns="http://www.w3.org/2000/svg">
<path d="M151.234 0.782949V17.0952L138.976 0.782949H137.41V20.0443H139.161V3.73205L151.418 20.0443H152.985V0.782949H151.234ZM123.586 18.6619C118.978 18.6619 115.844 14.9755 115.844 10.4597C115.844 5.85172 119.07 2.2575 123.586 2.2575C128.194 2.2575 131.327 5.94388 131.327 10.4597C131.327 14.9755 128.194 18.6619 123.586 18.6619ZM123.586 20.3208C129.023 20.3208 132.986 15.8971 132.986 10.4597C132.986 5.02228 129.023 0.598633 123.586 0.598633C118.148 0.598633 114.186 5.02228 114.186 10.4597C114.186 15.8971 118.148 20.3208 123.586 20.3208ZM108.011 20.0443H109.762V0.782949H108.011V20.0443ZM104.509 0.782949H92.0673V2.34966H97.4125V20.0443H99.1636V2.34966H104.509V0.782949ZM79.3493 14.4226L83.9573 2.62614L88.5652 14.4226H79.3493ZM90.6849 20.0443H92.6203L84.8789 0.782949H82.9435L75.2021 20.0443H77.1375L78.7963 15.8971H89.1182L90.6849 20.0443ZM75.8472 0.782949H63.3135V2.34966H68.6588V20.0443H70.4098V2.34966H75.7551V0.782949H75.8472ZM58.0605 20.0443H59.8115V0.782949H58.0605V20.0443ZM40.6423 18.4776V2.34966H43.9601C48.3837 2.34966 51.8858 5.94388 51.8858 10.4597C51.8858 14.9755 48.3837 18.4776 43.9601 18.4776H40.6423ZM38.8913 20.0443H43.9601C49.3053 20.0443 53.5446 15.7128 53.5446 10.4597C53.5446 5.11444 49.2132 0.875107 43.9601 0.875107H38.8913V20.0443ZM34.3755 2.34966V0.782949H23.9615V20.0443H34.2833V18.4776H25.6203V11.197H33.1774V9.63026H25.6203V2.34966H34.3755V2.34966ZM17.0495 0.782949L9.40026 12.0264L1.84319 0.782949H0V20.0443H1.75103V3.45557L9.40026 14.9755L17.1417 3.45557V20.1364H18.8927V0.782949H17.0495Z" fill="white"/>
<path d="M106.444 27.8777L111.974 27.9699C116.213 28.062 117.319 29.0758 117.411 30.366V30.8268C117.411 31.4719 117.503 31.5641 117.78 31.5641C117.964 31.5641 118.056 31.3798 118.056 31.0111C118.056 30.5503 118.148 27.5091 118.148 26.1267C118.148 25.8502 118.148 25.5737 117.964 25.5737C117.78 25.5737 117.411 25.6659 116.766 25.758C116.029 25.8502 115.015 25.9424 113.633 25.9424H97.0439C96.491 25.9424 94.8321 25.8502 93.5419 25.758C92.3438 25.6659 91.883 25.2051 91.6065 25.2051C91.4222 25.2051 91.2379 25.758 91.1457 26.0345C91.0536 26.4032 90.132 30.1817 90.132 30.6425C90.132 30.919 90.2241 31.0111 90.3163 31.0111C90.5006 31.0111 90.5928 30.919 90.7771 30.5503C90.8693 30.2739 91.0536 29.9052 91.5144 29.1679C92.2516 28.062 93.2654 27.7855 96.0302 27.7855L102.574 27.6934V46.4018C102.574 50.6411 102.573 54.1431 102.389 55.9863C102.205 57.2766 102.021 58.1982 101.099 58.3825C100.73 58.4746 100.177 58.5668 99.8087 58.5668C99.5322 58.5668 99.4401 58.659 99.4401 58.8433C99.4401 59.1198 99.6244 59.2119 100.177 59.2119C101.468 59.2119 104.325 59.1198 104.509 59.1198C104.693 59.1198 107.55 59.2119 109.946 59.2119C110.407 59.2119 110.684 59.1198 110.684 58.8433C110.684 58.7511 110.591 58.5668 110.315 58.5668C109.946 58.5668 108.933 58.4746 108.287 58.3825C106.997 58.1982 106.721 57.2766 106.536 55.9863C106.352 54.1431 106.352 50.6411 106.352 46.4018V27.8777H106.444ZM73.8198 28.1542C73.8198 27.8777 73.9119 27.6934 74.1884 27.6012C74.6492 27.5091 75.8473 27.3247 77.1375 27.3247C81.8376 27.3247 84.7867 30.6425 84.7867 36.1721C84.7867 39.4898 83.6808 41.8859 82.1141 42.9919C81.1003 43.7291 79.9023 43.8213 78.7964 43.8213C76.861 43.8213 74.8335 43.5448 74.1884 43.084C74.0041 42.9919 73.9119 42.8075 73.9119 42.5311V28.1542H73.8198ZM70.3177 46.5861C70.3177 50.8254 70.3177 54.3275 70.1334 56.1707C69.9491 57.4609 69.7647 58.3825 68.8431 58.5668C68.4745 58.659 67.9215 58.7511 67.5529 58.7511C67.2764 58.7511 67.1843 58.8433 67.1843 59.0276C67.1843 59.3041 67.3686 59.3962 67.9215 59.3962C69.2118 59.3962 72.0687 59.3041 72.0687 59.3041C72.253 59.3041 75.11 59.3962 77.5061 59.3962C77.9669 59.3962 78.2434 59.3041 78.2434 59.0276C78.2434 58.9354 78.1512 58.7511 77.8748 58.7511C77.5061 58.7511 76.4924 58.659 75.8473 58.5668C74.557 58.3825 74.2806 57.4609 74.0962 56.1707C73.9119 54.3275 73.9119 50.8254 73.9119 46.5861V45.4802C73.9119 45.2958 74.0041 45.1115 74.1884 45.1115L79.6258 45.2037C79.9023 45.2037 79.9944 45.2958 80.1788 45.4802C81.1003 46.5861 83.1279 49.6273 84.971 52.0235C87.4593 55.3412 89.0261 57.553 90.9614 58.5668C92.0673 59.2119 93.1732 59.3962 95.6616 59.3962H98.795C99.6244 59.3962 99.9009 59.3041 99.9009 59.0276C99.9009 58.9354 99.7166 58.7511 99.5322 58.7511C99.2558 58.7511 98.6106 58.7511 97.7812 58.659C96.6753 58.4746 94.7399 58.0138 92.3438 55.4334C89.7633 52.6686 86.8142 48.7979 83.1279 44.0978C87.0907 40.4114 88.4731 37.1858 88.4731 33.8681C88.4731 30.8268 86.5378 28.615 85.4318 27.8777C83.1279 26.2188 80.0866 25.9424 77.3218 25.9424C75.9394 25.9424 72.6217 26.0345 72.0687 26.0345C71.8844 26.0345 69.0275 25.9424 67.0921 25.9424C66.6313 25.9424 66.3548 26.0345 66.3548 26.311C66.3548 26.4953 66.5392 26.5875 66.7235 26.5875C67.0921 26.5875 67.8294 26.5875 68.198 26.6796C69.6726 26.9561 70.0412 27.6934 70.1334 29.1679C70.2255 30.5503 70.2255 31.8406 70.2255 38.7525V46.5861H70.3177ZM46.2641 44.7429C46.1719 44.7429 46.0798 44.6507 46.1719 44.4664L50.0426 32.4857C50.2269 31.8406 50.5034 31.8406 50.6877 32.4857L54.9271 44.4664C54.9271 44.6507 54.9271 44.7429 54.7427 44.7429H46.2641ZM40.0894 54.5118C39.26 56.7236 38.4305 58.3825 36.403 58.659C36.0344 58.659 35.3893 58.7511 35.1128 58.7511C34.9285 58.7511 34.7441 58.8433 34.7441 59.0276C34.7441 59.3041 35.0206 59.3962 35.5736 59.3962C37.6932 59.3962 40.0894 59.3041 40.5502 59.3041C41.011 59.3041 42.9463 59.3962 43.9601 59.3962C44.3287 59.3962 44.6052 59.3041 44.6052 59.0276C44.6052 58.8433 44.513 58.7511 44.1444 58.7511H43.6836C42.9463 58.7511 42.0247 58.3825 42.0247 57.4609C42.0247 56.6315 42.2091 55.6177 42.6699 54.5118L45.3425 46.6782C45.4346 46.4939 45.5268 46.3096 45.8033 46.3096H55.2957C55.48 46.3096 55.5722 46.4017 55.6643 46.5861L59.8115 57.4609C60.088 58.1982 59.8115 58.5668 59.535 58.659C59.3507 58.659 59.2586 58.7511 59.2586 58.9354C59.2586 59.2119 59.7194 59.2119 60.5488 59.2119C63.59 59.3041 66.8156 59.3041 67.4607 59.3041C67.9215 59.3041 68.3823 59.2119 68.3823 58.9354C68.3823 58.7511 68.198 58.659 67.9215 58.659C67.4607 58.659 66.8156 58.659 66.1705 58.3825C65.2489 58.106 63.9587 57.3687 62.392 53.498C59.7194 46.7704 52.7152 28.5228 52.0701 26.864C51.5172 25.4816 51.3328 25.2972 51.0564 25.2972C50.7799 25.2972 50.5956 25.5737 50.0426 27.0483L40.0894 54.5118Z" fill="white"/>
</svg>
