<svg width="48" height="48" viewBox="0 0 48 48" fill="none" xmlns="http://www.w3.org/2000/svg">
<circle opacity="0.3" cx="24" cy="24" r="23.5" stroke="white"/>
<path fill-rule="evenodd" clip-rule="evenodd" d="M36 24C36 30.6274 30.6274 36 24 36C17.3726 36 12 30.6274 12 24C12 17.3726 17.3726 12 24 12C30.6274 12 36 17.3726 36 24ZM27.8392 25.1938L27.8001 25.1747C27.5911 25.0723 26.6215 24.5972 26.4343 24.5299C26.3497 24.4995 26.259 24.4698 26.1626 24.4698C26.0051 24.4698 25.8728 24.5483 25.7697 24.7025C25.6532 24.8757 25.3005 25.288 25.1915 25.4112C25.1772 25.4274 25.1578 25.4469 25.1462 25.4469C25.1357 25.4469 24.9552 25.3725 24.9006 25.3488C23.6493 24.8052 22.6995 23.4982 22.5693 23.2778C22.5525 23.2491 22.5502 23.2346 22.5498 23.2321C22.5498 23.2318 22.5498 23.2317 22.5498 23.2317C22.5543 23.2149 22.5964 23.1727 22.6181 23.151C22.6816 23.0882 22.7503 23.0054 22.8169 22.9254L22.8169 22.9253L22.8171 22.9251C22.8486 22.8871 22.8802 22.8491 22.9112 22.8132C23.0078 22.7009 23.0508 22.6137 23.1006 22.5128L23.1007 22.5125L23.1269 22.4599C23.2486 22.218 23.1446 22.0139 23.111 21.9479C23.09 21.906 22.8006 21.2095 22.6398 20.8226L22.5385 20.5792C22.4126 20.2779 22.2462 20.1376 22.015 20.1376L22.0038 20.1376C22.0016 20.1377 21.9995 20.1378 21.9957 20.138C21.9872 20.1385 21.97 20.1395 21.925 20.1414C21.8155 20.146 21.2189 20.2245 20.9551 20.3908C20.6753 20.5672 20.2021 21.1294 20.2021 22.118C20.2021 23.0078 20.7668 23.848 21.0092 24.1675C21.0142 24.1742 21.0227 24.1867 21.0347 24.2043L21.0423 24.2154C21.9708 25.5714 23.1283 26.5763 24.3016 27.045C25.4312 27.4962 25.9661 27.5484 26.2702 27.5484L26.2703 27.5484C26.3981 27.5484 26.5004 27.5383 26.5906 27.5295L26.6478 27.524C27.0381 27.4894 27.8956 27.045 28.0907 26.503C28.2444 26.076 28.2849 25.6095 28.1826 25.4402C28.1126 25.3251 27.992 25.2672 27.8393 25.1939L27.8392 25.1938ZM16.2835 23.7996C16.2835 19.4989 19.8089 16 24.1422 16C28.4752 16 32.0002 19.4989 32.0002 23.7996C32.0002 28.0999 28.4752 31.5984 24.1423 31.5984C22.8428 31.5984 21.5587 31.278 20.4226 30.671L16.2709 31.9902C16.2502 31.9968 16.2291 32 16.208 32C16.1531 32 16.0993 31.9782 16.0597 31.9377C16.0048 31.8818 15.9861 31.7997 16.0112 31.7255L17.361 27.7439C16.6558 26.5523 16.2835 25.1906 16.2835 23.7996ZM20.717 28.9526C21.7351 29.6206 22.9194 29.9737 24.1422 29.9737C27.5742 29.9737 30.3662 27.2041 30.3662 23.7996C30.3662 20.3948 27.5741 17.6247 24.1422 17.6247C20.7099 17.6247 17.9175 20.3948 17.9175 23.7996C17.9175 25.1083 18.3273 26.3599 19.1026 27.4192C19.1426 27.4739 19.1534 27.5446 19.1317 27.6087L18.4603 29.5894L20.5401 28.9283C20.5607 28.9218 20.5819 28.9185 20.603 28.9185C20.643 28.9185 20.6828 28.9301 20.717 28.9526Z" fill="white"/>
</svg>
