<svg width="219" height="85" viewBox="0 0 219 85" fill="none" xmlns="http://www.w3.org/2000/svg">
<path d="M216.493 0.263851V23.6151L198.947 0.263851H196.704V27.8367H199.211V4.48553L216.757 27.8367H219V0.263851H216.493ZM176.915 25.8578C170.319 25.8578 165.833 20.5807 165.833 14.1163C165.833 7.51988 170.451 2.37469 176.915 2.37469C183.511 2.37469 187.997 7.6518 187.997 14.1163C187.997 20.5807 183.511 25.8578 176.915 25.8578ZM176.915 28.2325C184.699 28.2325 190.372 21.9 190.372 14.1163C190.372 6.33253 184.699 0 176.915 0C169.131 0 163.458 6.33253 163.458 14.1163C163.458 21.9 169.131 28.2325 176.915 28.2325ZM154.619 27.8367H157.126V0.263851H154.619V27.8367ZM149.606 0.263851H131.796V2.50662H139.448V27.8367H141.954V2.50662H149.606V0.263851ZM113.59 19.7892L120.186 2.90241L126.783 19.7892H113.59ZM129.817 27.8367H132.587L121.505 0.263851H118.735L107.653 27.8367H110.423L112.798 21.9H127.574L129.817 27.8367ZM108.577 0.263851H90.6343V2.50662H98.2861V27.8367H100.793V2.50662H108.445V0.263851H108.577ZM83.1145 27.8367H85.6211V0.263851H83.1145V27.8367ZM58.1801 25.594V2.50662H62.9295C69.2621 2.50662 74.2753 7.6518 74.2753 14.1163C74.2753 20.5807 69.2621 25.594 62.9295 25.594H58.1801ZM55.6735 27.8367H62.9295C70.5813 27.8367 76.65 21.6361 76.65 14.1163C76.65 6.46445 70.4494 0.395777 62.9295 0.395777H55.6735V27.8367ZM49.209 2.50662V0.263851H34.3012V27.8367H49.0771V25.594H36.6759V15.1717H47.494V12.9289H36.6759V2.50662H49.209ZM24.4066 0.263851L13.4566 16.359L2.63855 0.263851H0V27.8367H2.50663V4.08976L13.4566 20.5807L24.5386 4.08976V27.9687H27.0452V0.263851H24.4066Z" fill="white"/>
<path d="M152.377 39.0505L160.293 39.1824C166.361 39.3144 167.945 40.7656 168.076 42.6126V43.2722C168.076 44.1957 168.208 44.3276 168.604 44.3276C168.868 44.3276 169 44.0638 169 43.5361C169 42.8764 169.132 38.5228 169.132 36.5439C169.132 36.1481 169.132 35.7523 168.868 35.7523C168.604 35.7523 168.076 35.8842 167.153 36.0162C166.098 36.1481 164.646 36.28 162.667 36.28H138.92C138.129 36.28 135.754 36.1481 133.907 36.0162C132.192 35.8842 131.532 35.2246 131.137 35.2246C130.873 35.2246 130.609 36.0162 130.477 36.412C130.345 36.9397 129.026 42.3487 129.026 43.0083C129.026 43.4041 129.158 43.5361 129.29 43.5361C129.554 43.5361 129.686 43.4041 129.949 42.8764C130.081 42.4806 130.345 41.9529 131.005 40.8975C132.06 39.3144 133.511 38.9186 137.469 38.9186L146.836 38.7867V65.568C146.836 71.6367 146.836 76.6499 146.572 79.2885C146.308 81.1354 146.045 82.4547 144.725 82.7186C144.198 82.8505 143.406 82.9824 142.878 82.9824C142.482 82.9824 142.351 83.1144 142.351 83.3782C142.351 83.774 142.614 83.9059 143.406 83.9059C145.253 83.9059 149.343 83.774 149.607 83.774C149.87 83.774 153.96 83.9059 157.39 83.9059C158.05 83.9059 158.446 83.774 158.446 83.3782C158.446 83.2463 158.314 82.9824 157.918 82.9824C157.39 82.9824 155.939 82.8505 155.016 82.7186C153.169 82.4547 152.773 81.1354 152.509 79.2885C152.245 76.6499 152.245 71.6367 152.245 65.568V39.0505H152.377ZM105.675 39.4463C105.675 39.0505 105.807 38.7867 106.202 38.6547C106.862 38.5228 108.577 38.259 110.424 38.259C117.152 38.259 121.374 43.0083 121.374 50.924C121.374 55.6734 119.791 59.1035 117.548 60.6867C116.097 61.7421 114.382 61.874 112.799 61.874C110.028 61.874 107.126 61.4782 106.202 60.8186C105.939 60.6867 105.807 60.4228 105.807 60.027V39.4463H105.675ZM100.661 65.8318C100.661 71.9005 100.661 76.9138 100.398 79.5523C100.134 81.3993 99.8698 82.7186 98.5506 82.9824C98.0228 83.1144 97.2313 83.2463 96.7036 83.2463C96.3078 83.2463 96.1759 83.3782 96.1759 83.6421C96.1759 84.0379 96.4397 84.1698 97.2313 84.1698C99.0783 84.1698 103.168 84.0379 103.168 84.0379C103.432 84.0379 107.522 84.1698 110.952 84.1698C111.611 84.1698 112.007 84.0379 112.007 83.6421C112.007 83.5101 111.875 83.2463 111.479 83.2463C110.952 83.2463 109.501 83.1144 108.577 82.9824C106.73 82.7186 106.334 81.3993 106.07 79.5523C105.807 76.9138 105.807 71.9005 105.807 65.8318V64.2487C105.807 63.9848 105.939 63.721 106.202 63.721L113.986 63.8529C114.382 63.8529 114.514 63.9848 114.778 64.2487C116.097 65.8318 118.999 70.1855 121.638 73.6156C125.2 78.365 127.443 81.5312 130.213 82.9824C131.796 83.9059 133.379 84.1698 136.942 84.1698H141.427C142.614 84.1698 143.01 84.0379 143.01 83.6421C143.01 83.5101 142.746 83.2463 142.482 83.2463C142.087 83.2463 141.163 83.2463 139.976 83.1144C138.393 82.8505 135.622 82.1909 132.192 78.4969C128.498 74.5391 124.276 68.9981 118.999 62.2698C124.672 56.9927 126.651 52.3752 126.651 47.6258C126.651 43.2722 123.881 40.1059 122.298 39.0505C118.999 36.6758 114.646 36.28 110.688 36.28C108.709 36.28 103.96 36.412 103.168 36.412C102.904 36.412 98.8144 36.28 96.0439 36.28C95.3843 36.28 94.9885 36.412 94.9885 36.8077C94.9885 37.0716 95.2524 37.2035 95.5162 37.2035C96.0439 37.2035 97.0994 37.2035 97.6271 37.3355C99.7379 37.7312 100.266 38.7867 100.398 40.8975C100.529 42.8764 100.529 44.7234 100.529 54.618V65.8318H100.661ZM66.2283 63.1933C66.0963 63.1933 65.9644 63.0614 66.0963 62.7975L71.6373 45.6469C71.9012 44.7234 72.2969 44.7234 72.5608 45.6469L78.6295 62.7975C78.6295 63.0614 78.6295 63.1933 78.3656 63.1933H66.2283ZM57.3891 77.1776C56.2018 80.3439 55.0144 82.7186 52.112 83.1144C51.5843 83.1144 50.6608 83.2463 50.265 83.2463C50.0012 83.2463 49.7373 83.3782 49.7373 83.6421C49.7373 84.0379 50.1331 84.1698 50.9247 84.1698C53.959 84.1698 57.3891 84.0379 58.0487 84.0379C58.7084 84.0379 61.4789 84.1698 62.9301 84.1698C63.4578 84.1698 63.8536 84.0379 63.8536 83.6421C63.8536 83.3782 63.7216 83.2463 63.1939 83.2463H62.5343C61.4789 83.2463 60.1596 82.7186 60.1596 81.3993C60.1596 80.212 60.4234 78.7608 61.0831 77.1776L64.909 65.9638C65.0409 65.6999 65.1728 65.4361 65.5686 65.4361H79.1572C79.421 65.4361 79.553 65.568 79.6849 65.8318L85.6216 81.3993C86.0174 82.4547 85.6216 82.9824 85.2259 83.1144C84.962 83.1144 84.8301 83.2463 84.8301 83.5102C84.8301 83.9059 85.4897 83.9059 86.6771 83.9059C91.0307 84.0379 95.6481 84.0379 96.5716 84.0379C97.2313 84.0379 97.8909 83.9059 97.8909 83.5102C97.8909 83.2463 97.6271 83.1144 97.2313 83.1144C96.5716 83.1144 95.6482 83.1144 94.7247 82.7186C93.4054 82.3228 91.5584 81.2674 89.3156 75.7264C85.4897 66.0957 75.4632 39.974 74.5397 37.5993C73.7481 35.6204 73.4843 35.3565 73.0885 35.3565C72.6927 35.3565 72.4289 35.7523 71.6373 37.8632L57.3891 77.1776Z" fill="white"/>
</svg>
