<svg width="48" height="48" viewBox="0 0 48 48" fill="none" xmlns="http://www.w3.org/2000/svg">
<g clip-path="url(#clip0_263_941)">
<path d="M24 14.1609C27.2063 14.1609 27.5859 14.175 28.8469 14.2312C30.0188 14.2828 30.6516 14.4797 31.0734 14.6438C31.6313 14.8594 32.0344 15.1219 32.4516 15.5391C32.8734 15.9609 33.1313 16.3594 33.3469 16.9172C33.5109 17.3391 33.7078 17.9766 33.7594 19.1437C33.8156 20.4094 33.8297 20.7891 33.8297 23.9906C33.8297 27.1969 33.8156 27.5766 33.7594 28.8375C33.7078 30.0094 33.5109 30.6422 33.3469 31.0641C33.1313 31.6219 32.8687 32.025 32.4516 32.4422C32.0297 32.8641 31.6313 33.1219 31.0734 33.3375C30.6516 33.5016 30.0141 33.6984 28.8469 33.75C27.5813 33.8062 27.2016 33.8203 24 33.8203C20.7938 33.8203 20.4141 33.8062 19.1531 33.75C17.9813 33.6984 17.3484 33.5016 16.9266 33.3375C16.3688 33.1219 15.9656 32.8594 15.5484 32.4422C15.1266 32.0203 14.8688 31.6219 14.6531 31.0641C14.4891 30.6422 14.2922 30.0047 14.2406 28.8375C14.1844 27.5719 14.1703 27.1922 14.1703 23.9906C14.1703 20.7844 14.1844 20.4047 14.2406 19.1437C14.2922 17.9719 14.4891 17.3391 14.6531 16.9172C14.8688 16.3594 15.1313 15.9562 15.5484 15.5391C15.9703 15.1172 16.3688 14.8594 16.9266 14.6438C17.3484 14.4797 17.9859 14.2828 19.1531 14.2312C20.4141 14.175 20.7938 14.1609 24 14.1609ZM24 12C20.7422 12 20.3344 12.0141 19.0547 12.0703C17.7797 12.1266 16.9031 12.3328 16.1438 12.6281C15.3516 12.9375 14.6813 13.3453 14.0156 14.0156C13.3453 14.6813 12.9375 15.3516 12.6281 16.1391C12.3328 16.9031 12.1266 17.775 12.0703 19.05C12.0141 20.3344 12 20.7422 12 24C12 27.2578 12.0141 27.6656 12.0703 28.9453C12.1266 30.2203 12.3328 31.0969 12.6281 31.8563C12.9375 32.6484 13.3453 33.3188 14.0156 33.9844C14.6813 34.65 15.3516 35.0625 16.1391 35.3672C16.9031 35.6625 17.775 35.8687 19.05 35.925C20.3297 35.9812 20.7375 35.9953 23.9953 35.9953C27.2531 35.9953 27.6609 35.9812 28.9406 35.925C30.2156 35.8687 31.0922 35.6625 31.8516 35.3672C32.6391 35.0625 33.3094 34.65 33.975 33.9844C34.6406 33.3188 35.0531 32.6484 35.3578 31.8609C35.6531 31.0969 35.8594 30.225 35.9156 28.95C35.9719 27.6703 35.9859 27.2625 35.9859 24.0047C35.9859 20.7469 35.9719 20.3391 35.9156 19.0594C35.8594 17.7844 35.6531 16.9078 35.3578 16.1484C35.0625 15.3516 34.6547 14.6813 33.9844 14.0156C33.3188 13.35 32.6484 12.9375 31.8609 12.6328C31.0969 12.3375 30.225 12.1313 28.95 12.075C27.6656 12.0141 27.2578 12 24 12Z" fill="white"/>
<path d="M24 17.8359C20.5969 17.8359 17.8359 20.5969 17.8359 24C17.8359 27.4031 20.5969 30.1641 24 30.1641C27.4031 30.1641 30.1641 27.4031 30.1641 24C30.1641 20.5969 27.4031 17.8359 24 17.8359ZM24 27.9984C21.7922 27.9984 20.0016 26.2078 20.0016 24C20.0016 21.7922 21.7922 20.0016 24 20.0016C26.2078 20.0016 27.9984 21.7922 27.9984 24C27.9984 26.2078 26.2078 27.9984 24 27.9984Z" fill="white"/>
<path d="M31.8469 17.5924C31.8469 18.3893 31.2 19.0314 30.4078 19.0314C29.6109 19.0314 28.9688 18.3846 28.9688 17.5924C28.9688 16.7955 29.6156 16.1533 30.4078 16.1533C31.2 16.1533 31.8469 16.8002 31.8469 17.5924Z" fill="white"/>
</g>
<circle opacity="0.3" cx="24" cy="24" r="23.5" stroke="white"/>
<defs>
<clipPath id="clip0_263_941">
<rect width="24" height="24" fill="white" transform="translate(12 12)"/>
</clipPath>
</defs>
</svg>
