<svg width="48" height="48" viewBox="0 0 48 48" fill="none" xmlns="http://www.w3.org/2000/svg">
<circle opacity="0.3" cx="24" cy="24" r="23.5" stroke="white"/>
<path fill-rule="evenodd" clip-rule="evenodd" d="M24 36C30.6274 36 36 30.6274 36 24C36 17.3726 30.6274 12 24 12C17.3726 12 12 17.3726 12 24C12 30.6274 17.3726 36 24 36ZM30.2156 20C30.6787 20 30.7761 20.2294 30.6787 20.5417C30.484 21.4004 28.618 23.9296 28.618 23.9296C28.4557 24.1794 28.3908 24.3043 28.618 24.5853C28.698 24.6931 28.8687 24.854 29.064 25.0381C29.2648 25.2274 29.4917 25.4412 29.6727 25.647C30.3306 26.3592 30.8264 26.9599 30.9646 27.374C31.0908 27.7895 30.872 28 30.4344 28L28.9028 28C28.4925 28 28.286 27.7789 27.8396 27.3011C27.6504 27.0986 27.4181 26.85 27.109 26.5525C26.2003 25.7095 25.8108 25.6002 25.5837 25.6002C25.2754 25.6002 25.1832 25.6842 25.1832 26.1053L25.1832 27.4268C25.1832 27.7895 25.0627 28 24.0891 28C22.4665 28 20.6833 27.0521 19.4177 25.3035C17.5192 22.7431 17 20.8071 17 20.4168C17 20.1982 17.0875 20 17.5251 20L19.0567 20C19.4482 20 19.5954 20.1648 19.7422 20.5729C20.4913 22.6725 21.7543 24.5073 22.2735 24.5073C22.4682 24.5073 22.5575 24.4211 22.5575 23.9453L22.5575 21.7751C22.5224 21.1573 22.2981 20.8902 22.132 20.6923C22.0294 20.5701 21.949 20.4743 21.949 20.3387C21.949 20.1739 22.0954 20 22.3387 20L24.7456 20C25.0701 20 25.1831 20.167 25.1831 20.5417L25.1831 23.4613C25.1831 23.7735 25.3241 23.8828 25.4214 23.8828C25.6161 23.8828 25.7784 23.7735 26.1354 23.43C27.2387 22.2435 28.0176 20.4168 28.0176 20.4168C28.115 20.1982 28.2945 20 28.684 20L30.2156 20Z" fill="white"/>
</svg>
